# xmcd
#
# Track frame offsets: 
#        150
#        17420
#        33860
#        57812
#        67965
#        85945
#        109830
#        129817
#        167495
#        207707
#        251157
#
# Disc length: 3953 seconds
#
# Revision: 3
# Processed by: cddbd v1.5.2PL0 Copyright (c) Steve Scherf et al.
# Submitted via: ExactAudioCopy v0.99pb5
#
DISCID=890f6f0b
DTITLE=Marvine Gaye - Marvin Gaye In Concert (Live) 1993
DYEAR=1993
DGENRE=R&B
TTITLE0=I Heard It Through The Grapevine (Live)
TTITLE1=Come Get To This (Live)
TTITLE2=Let's Get It On (Live)
TTITLE3=God Is My Friend (Live)
TTITLE4=What's Goin' On (Live)
TTITLE5=Inner City Blues (Live)
TTITLE6=Joy (Live)
TTITLE7=Medley, 4 Songs (Live)
TTITLE8=Rockin' After Midnight (Live)
TTITLE9=Distant Lover (Live)
TTITLE10=Sexual Healing (Live)
EXTD=Track 08 - Medley (4 Songs):\n==============================\n
EXTD=01)  Ain't Nothing Like The Real Thing\n02)  Heaven Must Have Sen
EXTD=t You\n03)  Let's Be Friends\n04)  If This World Were Mine
EXTT0=
EXTT1=
EXTT2=
EXTT3=
EXTT4=
EXTT5=
EXTT6=
EXTT7=Track 08 - Medley (4 Songs):\n==============================
EXTT7=\n01)  Ain't Nothing Like The Real Thing\n02)  Heaven Must Have 
EXTT7=Sent You\n03)  Let's Be Friends\n04)  If This World Were Mine
EXTT8=
EXTT9=
EXTT10=
PLAYORDER=
